<svg id="Layer_1" data-name="Layer 1" xmlns="http://www.w3.org/2000/svg" viewBox="0 0 437.68 437.62"><defs><style>.cls-1{fill:#41aa34;}.cls-2{fill:#69b32d;}.cls-3{fill:#ac191d;}.cls-4{fill:#e42320;}.cls-5{fill:#009ccf;}.cls-6{fill:#3bbeef;}.cls-7{fill:#d38c08;}.cls-8{fill:#f8b014;}.cls-9{fill:#257833;}.cls-10{fill:#757576;}.cls-11{fill:#e18c94;}.cls-12{fill:#fff;}</style></defs><rect class="cls-1" x="11.18" y="12.84" width="201.83" height="201.83" rx="12"/><rect class="cls-2" x="11.18" y="12.84" width="190.69" height="190.69" rx="12"/><rect class="cls-3" x="225.74" y="12.84" width="201.83" height="201.83" rx="12"/><rect class="cls-4" x="225.74" y="12.84" width="190.69" height="190.69" rx="12"/><rect class="cls-5" x="11.18" y="224.33" width="201.83" height="201.83" rx="12"/><rect class="cls-6" x="11.18" y="224.33" width="190.69" height="190.69" rx="12"/><rect class="cls-7" x="225.74" y="224.33" width="201.83" height="201.83" rx="12"/><rect class="cls-8" x="225.74" y="224.33" width="190.69" height="190.69" rx="12"/><path class="cls-9" d="M54.07,72.06q0-10.65,6.84-21.59t20-18.1Q94,25.19,111.48,25.19q16.26,0,28.7,6A46.57,46.57,0,0,1,159.41,47.5a40,40,0,0,1,6.79,22.43,34.71,34.71,0,0,1-3.87,16.71A51.07,51.07,0,0,1,153.14,99q-5.34,5.22-19.12,17.55a79.3,79.3,0,0,0-6.11,6.11,24.5,24.5,0,0,0-3.42,4.82,23.48,23.48,0,0,0-1.74,4.38q-.61,2.19-1.85,7.68-2.13,11.66-13.34,11.66a13.63,13.63,0,0,1-9.81-3.81q-4-3.81-4-11.33a41.76,41.76,0,0,1,2.92-16.31,41.12,41.12,0,0,1,7.74-12.11,176,176,0,0,1,13-12.39q7.18-6.28,10.37-9.48a31.88,31.88,0,0,0,5.39-7.12,17.26,17.26,0,0,0,2.18-8.52A19.79,19.79,0,0,0,128.69,55q-6.68-6.17-17.21-6.17-12.33,0-18.16,6.22T83.45,73.4Q79.64,86.07,69,86.07a14.22,14.22,0,0,1-10.59-4.42Q54.07,77.21,54.07,72.06ZM108.79,195a17.65,17.65,0,0,1-11.94-4.43q-5.1-4.43-5.1-12.39a16,16,0,0,1,4.93-11.89,16.67,16.67,0,0,1,12.11-4.82,16.48,16.48,0,0,1,16.71,16.71c0,5.23-1.69,9.35-5,12.33A17,17,0,0,1,108.79,195Z"/><path class="cls-10" d="M313.92,327l-3.24-48.57q-.92-14.19-.92-20.38,0-8.41,4.42-13.13a15.15,15.15,0,0,1,11.61-4.71q8.71,0,11.66,6t2.94,17.39a133.68,133.68,0,0,1-.71,13.59l-4.36,50q-.72,8.93-3.05,13.69a8,8,0,0,1-7.7,4.77q-5.47,0-7.61-4.62T313.92,327Zm11.26,66.72a15.94,15.94,0,0,1-10.8-4q-4.62-4-4.62-11.2A15.07,15.07,0,0,1,325,363.38a15,15,0,0,1,10.9,4.41,14.41,14.41,0,0,1,4.52,10.7q0,7.1-4.57,11.15A15.49,15.49,0,0,1,325.18,393.7Z"/><path class="cls-11" d="M278.29,47.09a12.62,12.62,0,0,1,3.25-8.67q3.24-3.66,9.08-3.65a11.78,11.78,0,0,1,8.52,3.48,11.58,11.58,0,0,1,3.56,8.6,12,12,0,0,1-3.52,8.72,12.53,12.53,0,0,1-17.6,0A12.2,12.2,0,0,1,278.29,47.09Zm77.94-12.32q5.76,0,8.92,3.61a12.74,12.74,0,0,1,3.16,8.71,12.35,12.35,0,0,1-3.2,8.52q-3.21,3.57-8.88,3.57a11.53,11.53,0,0,1-8.36-3.9,11.87,11.87,0,0,1-3.81-8.43,11.52,11.52,0,0,1,3.65-8.52A11.84,11.84,0,0,1,356.23,34.77Z"/><path class="cls-11" d="M310.74,139.23V116.38H275.87c-5,0-8.77-1.18-11.34-3.53a12.42,12.42,0,0,1,0-18q3.81-3.45,11.21-3.45h94.95q8.24,0,11.76,3.78t3.53,12v32q0,14.21-2.18,21.85a32.51,32.51,0,0,1-7,13.06,31.28,31.28,0,0,1-11.93,8.36A41.88,41.88,0,0,1,349,185.36q-18.83,0-28.52-11.6T310.74,139.23Zm56.47-6v-16.8H329.56v16.8a50.31,50.31,0,0,0,1.85,14.75,17.16,17.16,0,0,0,6,9q4.2,3.1,11,3.11,8.14,0,13.27-4.79Q367.2,149.89,367.21,133.18Z"/><path class="cls-12" d="M67.32,254.18a16.07,16.07,0,0,1,3.27-10.1,10.88,10.88,0,0,1,9.16-4.26,11.1,11.1,0,0,1,8.58,4.07,14.53,14.53,0,0,1,3.6,10,15.23,15.23,0,0,1-3.56,10.16,11.46,11.46,0,0,1-17.74,0A15.56,15.56,0,0,1,67.32,254.18Zm78.56-14.36a10.63,10.63,0,0,1,9,4.21,16.29,16.29,0,0,1,3.19,10.15,15.71,15.71,0,0,1-3.23,9.92,10.71,10.71,0,0,1-9,4.16q-4.57,0-8.42-4.54a14.89,14.89,0,0,1-3.84-9.82A14.43,14.43,0,0,1,137.3,244,11.15,11.15,0,0,1,145.88,239.82Z"/><path class="cls-12" d="M174.34,308.57v32.87a88.83,88.83,0,0,1-2.38,22A40.49,40.49,0,0,1,163,380.07q-16.64,19.46-50.61,19.45A99.42,99.42,0,0,1,92,397.57a61,61,0,0,1-16.69-6A52,52,0,0,1,62,381.09a43.17,43.17,0,0,1-7.21-10.95A49.62,49.62,0,0,1,51,357.36,98.09,98.09,0,0,1,49.85,342V309.08q0-6.87,2.08-10.36a9.69,9.69,0,0,1,5.86-4.54,37.16,37.16,0,0,1,9.81-1.06h91.28q8.16,0,11.81,3.65T174.34,308.57Zm-20,9.77H69.89v19.1q0,6.29.34,9.86a30.7,30.7,0,0,0,1.7,7.38,20.08,20.08,0,0,0,3.82,6.63Q86.45,374,112.6,374q18.44,0,27.6-5.56t11.68-13.72a67.64,67.64,0,0,0,2.5-19.7Z"/></svg>